<?xml version="1.0" encoding="UTF-8" standalone="no"?><!DOCTYPE svg PUBLIC "-//W3C//DTD SVG 1.1//EN" "http://www.w3.org/Graphics/SVG/1.1/DTD/svg11.dtd"><!-- Generated by graphviz version 2.40.1 (20161225.0304)
 --><!-- Title: entityManagerFactory(EntityManagerFactoryBuilder) Pages: 1 --><svg xmlns="http://www.w3.org/2000/svg" xmlns:xlink="http://www.w3.org/1999/xlink" width="817pt" height="659pt" viewBox="0.00 0.00 817.00 659.00">
<g id="graph0" class="graph" transform="scale(1 1) rotate(0) translate(4 655)">
<title>entityManagerFactory(EntityManagerFactoryBuilder)</title>
<polygon fill="#ffffff" stroke="transparent" points="-4,4 -4,-655 813,-655 813,4 -4,4"/>
<!-- AbstractAuditable -->
<g id="node1" class="node">
<title>AbstractAuditable</title>
<polygon fill="none" stroke="#000000" points="650.3376,-445.776 650.3376,-512.176 808.6224,-512.176 808.6224,-445.776 650.3376,-445.776"/>
<text text-anchor="middle" x="729.48" y="-495.576" font-family="Times,serif" font-size="14.00" fill="#000000">AbstractAuditable</text>
<polyline fill="none" stroke="#000000" points="650.3376,-487.376 808.6224,-487.376 "/>
<text text-anchor="start" x="658.3376" y="-470.776" font-family="Times,serif" font-size="14.00" fill="#000000">createdDate : Date </text>
<text text-anchor="start" x="658.3376" y="-453.976" font-family="Times,serif" font-size="14.00" fill="#000000"> lastModifiedDate : Date </text>
</g>
<!-- AbstractPersistable -->
<g id="node2" class="node">
<title>AbstractPersistable</title>
<polygon fill="none" stroke="#000000" points="663.4849,-567.216 663.4849,-616.816 787.5551,-616.816 787.5551,-567.216 663.4849,-567.216"/>
<text text-anchor="middle" x="725.52" y="-600.216" font-family="Times,serif" font-size="14.00" fill="#000000">AbstractPersistable</text>
<polyline fill="none" stroke="#000000" points="663.4849,-592.016 787.5551,-592.016 "/>
<text text-anchor="start" x="671.4849" y="-575.416" font-family="Times,serif" font-size="14.00" fill="#000000">id : PK </text>
</g>
<!-- AbstractAuditable&#45;&gt;AbstractPersistable -->
<g id="edge1" class="edge">
<title>AbstractAuditable-&gt;AbstractPersistable</title>
<path fill="none" stroke="#595959" d="M725.52,-512.2803C725.52,-512.2803 725.52,-557.2002 725.52,-557.2002"/>
<polygon fill="none" stroke="#595959" points="722.0201,-557.2001 725.52,-567.2002 729.0201,-557.2002 722.0201,-557.2001"/>
</g>
<!-- Aluno -->
<g id="node3" class="node">
<title>Aluno</title>
<polygon fill="none" stroke="#000000" points="-.276,-280.584 -.276,-481.384 182.1,-481.384 182.1,-280.584 -.276,-280.584"/>
<text text-anchor="middle" x="90.912" y="-464.784" font-family="Times,serif" font-size="14.00" fill="#000000">Aluno</text>
<polyline fill="none" stroke="#000000" points="-.276,-456.584 182.1,-456.584 "/>
<text text-anchor="start" x="7.724" y="-439.984" font-family="Times,serif" font-size="14.00" fill="#000000">id : Long </text>
<text text-anchor="start" x="7.724" y="-423.184" font-family="Times,serif" font-size="14.00" fill="#000000"> cpf : String </text>
<text text-anchor="start" x="7.724" y="-406.384" font-family="Times,serif" font-size="14.00" fill="#000000"> curso : Curso </text>
<text text-anchor="start" x="7.724" y="-389.584" font-family="Times,serif" font-size="14.00" fill="#000000"> dataNascimento : LocalDate </text>
<text text-anchor="start" x="7.724" y="-372.784" font-family="Times,serif" font-size="14.00" fill="#000000"> endereco : String </text>
<text text-anchor="start" x="7.724" y="-355.984" font-family="Times,serif" font-size="14.00" fill="#000000"> matricula : String </text>
<text text-anchor="start" x="7.724" y="-339.184" font-family="Times,serif" font-size="14.00" fill="#000000"> nome : String </text>
<text text-anchor="start" x="7.724" y="-322.384" font-family="Times,serif" font-size="14.00" fill="#000000"> status : Status </text>
<text text-anchor="start" x="7.724" y="-305.584" font-family="Times,serif" font-size="14.00" fill="#000000"> telefone : String </text>
<text text-anchor="start" x="7.724" y="-288.784" font-family="Times,serif" font-size="14.00" fill="#000000"> turno : Turno </text>
</g>
<!-- Usuario -->
<g id="node7" class="node">
<title>Usuario</title>
<polygon fill="none" stroke="#000000" points="193.6015,-533.616 193.6015,-650.416 364.3505,-650.416 364.3505,-533.616 193.6015,-533.616"/>
<text text-anchor="middle" x="278.976" y="-633.816" font-family="Times,serif" font-size="14.00" fill="#000000">Usuario</text>
<polyline fill="none" stroke="#000000" points="193.6015,-625.616 364.3505,-625.616 "/>
<text text-anchor="start" x="201.6015" y="-609.016" font-family="Times,serif" font-size="14.00" fill="#000000">id : Long </text>
<text text-anchor="start" x="201.6015" y="-592.216" font-family="Times,serif" font-size="14.00" fill="#000000"> email : String </text>
<text text-anchor="start" x="201.6015" y="-575.416" font-family="Times,serif" font-size="14.00" fill="#000000"> senha : String </text>
<text text-anchor="start" x="201.6015" y="-558.616" font-family="Times,serif" font-size="14.00" fill="#000000"> tipoUsuario : TipoUsuario </text>
<text text-anchor="start" x="201.6015" y="-541.816" font-family="Times,serif" font-size="14.00" fill="#000000"> user : String </text>
</g>
<!-- Aluno&#45;&gt;Usuario -->
<g id="edge2" class="edge">
<title>Aluno-&gt;Usuario</title>
<path fill="none" stroke="#595959" d="M182.4722,-463C216.7463,-463 247.5329,-463 247.5329,-463 247.5329,-463 247.5329,-528.5478 247.5329,-528.5478"/>
<polygon fill="#595959" stroke="#595959" points="252.5329,-532.5479 242.5329,-532.5477 242.533,-530.5477 252.533,-530.5479 252.5329,-532.5479"/>
<polyline fill="none" stroke="#595959" points="247.5329,-533.5478 247.533,-528.5478 "/>
<text text-anchor="middle" x="237.0329" y="-520.9478" font-family="Times,serif" font-size="14.00" fill="#000000">0..1</text>
<text text-anchor="middle" x="192.9722" y="-467.2" font-family="Times,serif" font-size="14.00" fill="#000000">0..1</text>
</g>
<!-- Equipamento -->
<g id="node4" class="node">
<title>Equipamento</title>
<polygon fill="none" stroke="#000000" points="441.0337,0 441.0337,-100 575.9903,-100 575.9903,0 441.0337,0"/>
<text text-anchor="middle" x="508.512" y="-83.4" font-family="Times,serif" font-size="14.00" fill="#000000">Equipamento</text>
<polyline fill="none" stroke="#000000" points="441.0337,-75.2 575.9903,-75.2 "/>
<text text-anchor="start" x="449.0337" y="-58.6" font-family="Times,serif" font-size="14.00" fill="#000000">id : Long </text>
<text text-anchor="start" x="449.0337" y="-41.8" font-family="Times,serif" font-size="14.00" fill="#000000"> descricao : String </text>
<text text-anchor="start" x="449.0337" y="-25" font-family="Times,serif" font-size="14.00" fill="#000000"> disponivel : Status </text>
<text text-anchor="start" x="449.0337" y="-8.2" font-family="Times,serif" font-size="14.00" fill="#000000"> quantidade : Integer </text>
</g>
<!-- Quadra -->
<g id="node5" class="node">
<title>Quadra</title>
<polygon fill="none" stroke="#000000" points="413.2261,-529.992 413.2261,-629.992 577.7339,-629.992 577.7339,-529.992 413.2261,-529.992"/>
<text text-anchor="middle" x="495.48" y="-613.392" font-family="Times,serif" font-size="14.00" fill="#000000">Quadra</text>
<polyline fill="none" stroke="#000000" points="413.2261,-605.192 577.7339,-605.192 "/>
<text text-anchor="start" x="421.2261" y="-588.592" font-family="Times,serif" font-size="14.00" fill="#000000">id : Long </text>
<text text-anchor="start" x="421.2261" y="-571.792" font-family="Times,serif" font-size="14.00" fill="#000000"> campus : Campus </text>
<text text-anchor="start" x="421.2261" y="-554.992" font-family="Times,serif" font-size="14.00" fill="#000000"> nome : String </text>
<text text-anchor="start" x="421.2261" y="-538.192" font-family="Times,serif" font-size="14.00" fill="#000000"> tipoQuadra : TipoQuadra </text>
</g>
<!-- Equipamento&#45;&gt;Quadra -->
<g id="edge3" class="edge">
<title>Equipamento-&gt;Quadra</title>
<path fill="none" stroke="#595959" d="M525.247,-100.3382C525.247,-100.3382 525.247,-524.99 525.247,-524.99"/>
<polygon fill="#595959" stroke="#595959" points="530.247,-528.9901 520.247,-528.9899 520.2471,-526.9899 530.2471,-526.9901 530.247,-528.9901"/>
<polyline fill="none" stroke="#595959" points="525.247,-529.99 525.2471,-524.99 "/>
<text text-anchor="middle" x="514.747" y="-517.39" font-family="Times,serif" font-size="14.00" fill="#000000">0..1</text>
<text text-anchor="middle" x="514.747" y="-104.5382" font-family="Times,serif" font-size="14.00" fill="#000000">0..*</text>
</g>
<!-- Reserva -->
<g id="node6" class="node">
<title>Reserva</title>
<polygon fill="none" stroke="#000000" points="301.4643,-262.608 301.4643,-379.408 474.5037,-379.408 474.5037,-262.608 301.4643,-262.608"/>
<text text-anchor="middle" x="387.984" y="-362.808" font-family="Times,serif" font-size="14.00" fill="#000000">Reserva</text>
<polyline fill="none" stroke="#000000" points="301.4643,-354.608 474.5037,-354.608 "/>
<text text-anchor="start" x="309.4643" y="-338.008" font-family="Times,serif" font-size="14.00" fill="#000000">id : Long </text>
<text text-anchor="start" x="309.4643" y="-321.208" font-family="Times,serif" font-size="14.00" fill="#000000"> dataHora : LocalDateTime </text>
<text text-anchor="start" x="309.4643" y="-304.408" font-family="Times,serif" font-size="14.00" fill="#000000"> presenca : Status </text>
<text text-anchor="start" x="309.4643" y="-287.608" font-family="Times,serif" font-size="14.00" fill="#000000"> punicao : Status </text>
<text text-anchor="start" x="309.4643" y="-270.808" font-family="Times,serif" font-size="14.00" fill="#000000"> solicitacoes : Solicitacoes </text>
</g>
<!-- Equipamento&#45;&gt;Reserva -->
<g id="edge4" class="edge">
<title>Equipamento-&gt;Reserva</title>
<path fill="none" stroke="#595959" d="M457.7687,-100.0229C457.7687,-100.0229 457.7687,-257.3207 457.7687,-257.3207"/>
<polygon fill="#595959" stroke="#595959" points="462.7687,-261.3208 452.7687,-261.3206 452.7688,-259.3206 462.7688,-259.3208 462.7687,-261.3208"/>
<polyline fill="none" stroke="#595959" points="457.7687,-262.3207 457.7688,-257.3207 "/>
<text text-anchor="middle" x="447.2687" y="-249.7207" font-family="Times,serif" font-size="14.00" fill="#000000">0..1</text>
<text text-anchor="middle" x="447.2687" y="-104.2229" font-family="Times,serif" font-size="14.00" fill="#000000">0..*</text>
</g>
<!-- Reserva&#45;&gt;Quadra -->
<g id="edge5" class="edge">
<title>Reserva-&gt;Quadra</title>
<path fill="none" stroke="#595959" d="M443.8649,-379.452C443.8649,-379.452 443.8649,-524.6223 443.8649,-524.6223"/>
<polygon fill="#595959" stroke="#595959" points="448.8649,-528.6224 438.8649,-528.6222 438.865,-526.6222 448.865,-526.6224 448.8649,-528.6224"/>
<polyline fill="none" stroke="#595959" points="443.8649,-529.6223 443.865,-524.6223 "/>
<text text-anchor="middle" x="433.3649" y="-517.0223" font-family="Times,serif" font-size="14.00" fill="#000000">0..1</text>
<text text-anchor="middle" x="433.3649" y="-383.652" font-family="Times,serif" font-size="14.00" fill="#000000">0..*</text>
</g>
<!-- Reserva&#45;&gt;Usuario -->
<g id="edge6" class="edge">
<title>Reserva-&gt;Usuario</title>
<path fill="none" stroke="#595959" d="M332.9074,-379.479C332.9074,-379.479 332.9074,-528.1826 332.9074,-528.1826"/>
<polygon fill="#595959" stroke="#595959" points="337.9074,-532.1827 327.9074,-532.1825 327.9075,-530.1825 337.9075,-530.1827 337.9074,-532.1827"/>
<polyline fill="none" stroke="#595959" points="332.9074,-533.1826 332.9075,-528.1826 "/>
<text text-anchor="middle" x="322.4074" y="-520.5826" font-family="Times,serif" font-size="14.00" fill="#000000">0..1</text>
<text text-anchor="middle" x="322.4074" y="-383.679" font-family="Times,serif" font-size="14.00" fill="#000000">0..*</text>
</g>
</g>
</svg>