<?xml version="1.0" encoding="iso-8859-1"?>
<!-- Uploaded to: SVG Repo, www.svgrepo.com, Generator: SVG Repo Mixer Tools -->
<!DOCTYPE svg PUBLIC "-//W3C//DTD SVG 1.1//EN" "http://www.w3.org/Graphics/SVG/1.1/DTD/svg11.dtd">
<svg fill="#000000" version="1.1" id="Capa_1" xmlns="http://www.w3.org/2000/svg" xmlns:xlink="http://www.w3.org/1999/xlink" 
	 width="102" height="77" viewBox="0 0 432.824 432.823"
	 xml:space="preserve">
<g>
	<path d="M336.521,193.126c45.922-5.264,81.727-44.328,81.727-91.645c0-46.922-35.223-85.691-80.602-91.471
		C336.744,4.342,331.875,0,325.951,0H106.865c-5.918,0-10.793,4.342-11.699,10.01c-45.371,5.779-80.59,44.549-80.59,91.471
		c0,47.316,35.801,86.381,81.73,91.645c5.5,39.19,29.676,72.447,63.32,90.332v89.062h-21.949c-6.562,0-11.883,5.319-11.883,11.885
		v36.535c0,6.562,5.32,11.883,11.883,11.883h157.469c6.562,0,11.883-5.32,11.883-11.883v-36.535c0-6.564-5.32-11.885-11.883-11.885
		h-21.953v-89.062C306.837,265.573,331.013,232.323,336.521,193.126z M283.259,409.056H149.563v-12.768h133.695L283.259,409.056
		L283.259,409.056z M394.478,101.481c0,33.727-24.513,61.771-56.642,67.424V34.058C369.966,39.71,394.478,67.755,394.478,101.481z
		 M38.346,101.481c0-33.727,24.512-61.771,56.637-67.424v134.848C62.856,163.253,38.346,135.208,38.346,101.481z M118.751,176.198
		V23.77h195.316v152.428c0,53.853-43.806,97.662-97.656,97.662C162.561,273.86,118.751,230.051,118.751,176.198z M249.423,370.837
		h-66.032v-77.891c10.516,2.977,21.566,4.684,33.02,4.684c11.457,0,22.496-1.707,33.012-4.678V370.837z"/>
</g>
</svg>